<?xml version="1.0" encoding="utf-8"?>
<!-- Generator: Adobe Illustrator 18.1.0, SVG Export Plug-In . SVG Version: 6.00 Build 0)  -->
<!DOCTYPE svg PUBLIC "-//W3C//DTD SVG 1.1//EN" "http://www.w3.org/Graphics/SVG/1.1/DTD/svg11.dtd">
<svg version="1.1" id="Layer_1" xmlns="http://www.w3.org/2000/svg" xmlns:xlink="http://www.w3.org/1999/xlink" x="0px" y="0px"
	 viewBox="0 0 150.5 150.5" enable-background="new 0 0 150.5 150.5" xml:space="preserve">
<g>
	<g>
		<path d="M150.5,150.5c-50,0-100,0-150,0c0-50,0-100,0-150c50,0,100,0,150,0C150.5,50.5,150.5,100.5,150.5,150.5z M3.3,3.3
			c0,48.4,0,96.5,0,144.6c48.2,0,96.3,0,144.4,0c0-48.2,0-96.3,0-144.6C99.5,3.3,51.5,3.3,3.3,3.3z"/>
		<path fill="#FFFFFF" d="M3.3,3.3c48.2,0,96.2,0,144.4,0c0,48.2,0,96.3,0,144.6c-48.1,0-96.2,0-144.4,0C3.3,99.8,3.3,51.7,3.3,3.3z
			 M112.3,79.3c2.6-2.1,5-3.4,6.4-5.3c1.6-2.3,0.8-5-1.6-7.5c1.4-0.2,2.1-0.4,2.9-0.4c8.2,0,16.3,0,24.5,0c0.8,0,1.5-0.7,2.3-1
			c-0.7-0.3-1.4-1-2.2-1c-8.3-0.1-16.7-0.1-25,0c-3.1,0-6.3,0.9-9.2-1.2c-0.5-0.4-1.5-0.2-2.2-0.3c-2.4,0-4.8-0.1-7.2,0
			c-0.7,0-1.4,0.3-2.2,0.5c-2.1,0.4-4.1,1-6.2,1.2C90.8,64.4,88.9,64,87,64c-10.2,0-20.3,0-30.5,0c-2.1,0-3.5-0.5-4.5-2.7
			c-0.8-1.6-2.4-2.9-3.8-4.2c-0.8-0.7-2-1.1-3-1.6c-0.9-0.4-1.9-1.2-2.8-1.1c-4,0.4-8.5-1.7-12,2.1c-3.3-0.1-4.8,2.5-6.2,4.7
			c-1.3,2-2.7,2.8-4.9,2.7C15.2,64,11.1,64,7,64.1c-0.8,0-1.6,0.6-2.4,0.9c0.8,0.4,1.5,1,2.3,1c4.7,0.1,9.5,0,14.2,0.1
			c1,0,2.2,0.2,3.1,0.7c2.2,1.4,3.9,3.4,6.5,4.6c2.2,1,4.2,1.7,6.4,1.6c3-0.2,6.3,0.7,8.9-2c1.3-1.4,3.1-2.4,4.7-3.4
			c1.2-0.7,2.7-1.4,4.1-1.4C66.4,66,77.9,66,89.4,66c0.6,0,1.5,0.2,1.7,0.7c0.2,0.4-0.1,1.2-0.4,1.7c-1.5,2.4-1.3,4.9,0.8,6.6
			c1.8,1.5,3.8,2.6,6.2,4.3c-1.9,0.2-3.7,0.5-5.4,0.5c-28.2,0-56.5,0-84.7,0c-1,0-1.9,0-3,0c0,1,0,1.7,0,2.5c47.4,0,94.7,0,142,0
			c0.8-2,0.1-2.6-1.8-2.6c-9.6,0.1-19.2,0.1-28.7,0C115,79.8,113.9,79.5,112.3,79.3z M119.6,114.3c-3.7-0.7-6.8-0.2-9.8,1.5
			c-2,1.2-4,2.6-6.2,3.1c-4.1,1-8.3,1.5-12.5,2.2c-0.8,0.1-1.6,0.3-2.4,0.6c-2,0.8-3.8,2-5.9,2.4c-4.6,0.7-9.2,1.2-13.8,1.4
			c-5.1,0.2-10.2,0.1-15.2,0c-1.5,0-3.1-0.4-4.6-0.8c-2.6-0.7-5.2-1.4-7.9-2.2c-1.9-0.5-3.9-0.9-5.5-1.8c-2.8-1.6-5.3-3.6-8-5.3
			c-1.5-0.9-3.7-1.1-4.8-2.4c-1.9-2.1-4-2.8-6.8-2.9c-2.1-0.1-2.7,0.8-2.7,2.5c-0.1,4.3,2,7.4,5.2,10c4.1,3.3,8.8,5.3,13.8,6.8
			c13.6,4,27.5,5.2,41.5,4.4c11.3-0.7,22.4-2.3,32.7-7.1C112.3,124.1,117.1,120.6,119.6,114.3z M146.6,17.3c-0.9,0-1.6,0-2.4,0
			c-45.6,0-91.2,0-136.7,0c-0.4,0-0.8,0-1.2,0c-1.9-0.1-2.1,0.8-1.4,2.6c0.9,0,1.9,0,2.9,0c19.3,0,38.7,0,58,0c26.2,0,52.5,0,78.7,0
			C146,19.9,147.6,20,146.6,17.3z M4.8,33.6c-0.7,3.1,1.5,2.2,2.6,2.2c45.4,0,90.8,0,136.2,0c1.1,0,2.9,1,3.1-1.2c0-0.3-2-1-3-1
			c-45.3-0.1-90.6,0-135.9,0C6.8,33.6,5.8,33.6,4.8,33.6z M146.4,50.3c0-0.2,0-0.3,0-0.5c-47.2,0-94.4,0-141.5,0c0,0.2,0,0.3,0,0.5
			C52,50.3,99.2,50.3,146.4,50.3z"/>
		<path d="M112.3,79.3c1.5,0.2,2.6,0.4,3.7,0.4c9.6,0,19.2,0,28.7,0c2,0,2.6,0.6,1.8,2.6c-47.3,0-94.6,0-142,0c0-0.8,0-1.5,0-2.5
			c1.1,0,2,0,3,0c28.2,0,56.5,0,84.7,0c1.7,0,3.5-0.3,5.4-0.5c-2.4-1.6-4.4-2.8-6.2-4.3c-2.1-1.7-2.3-4.3-0.8-6.6
			c0.3-0.5,0.6-1.4,0.4-1.7C90.9,66.2,90,66,89.4,66c-11.5,0-23,0-34.5,0.2c-1.4,0-2.8,0.7-4.1,1.4c-1.7,1-3.4,2-4.7,3.4
			c-2.6,2.7-5.8,1.8-8.9,2c-2.3,0.1-4.2-0.6-6.4-1.6c-2.6-1.2-4.3-3.2-6.5-4.6c-0.8-0.5-2-0.7-3.1-0.7c-4.7-0.1-9.5,0-14.2-0.1
			c-0.8,0-1.6-0.7-2.3-1c0.8-0.3,1.6-0.9,2.4-0.9c4.1-0.1,8.2-0.1,12.2,0c2.2,0,3.6-0.8,4.9-2.7c1.4-2.2,2.9-4.8,6.2-4.7
			c3.4-3.8,7.9-1.6,12-2.1c0.9-0.1,1.9,0.7,2.8,1.1c1,0.5,2.2,0.8,3,1.6c1.4,1.2,3.1,2.5,3.8,4.2c1,2.2,2.4,2.7,4.5,2.7
			c10.2,0,20.3,0,30.5,0c1.9,0,3.8,0.4,5.7,0.2c2.1-0.2,4.1-0.8,6.2-1.2c0.7-0.2,1.4-0.4,2.2-0.5c2.4,0,4.8,0,7.2,0
			c0.7,0,1.7-0.1,2.2,0.3c2.9,2.1,6,1.2,9.2,1.2c8.3-0.1,16.7-0.1,25,0c0.7,0,1.4,0.6,2.2,1c-0.8,0.4-1.5,1-2.3,1
			c-8.2,0.1-16.3,0-24.5,0c-0.8,0-1.5,0.2-2.9,0.4c2.4,2.5,3.3,5.2,1.6,7.5C117.4,76,114.9,77.2,112.3,79.3z M104,78.1
			c3.8,0.6,5.8-2.2,7.3-4.6c2.4-4,0.3-7-4.2-7c-0.7,0-1.3,0-2,0c-1.7,0.2-3.8-0.9-4.8,1.5c-0.7,1.6-1.8,3.2-2,4.9
			C97.8,76.1,100,78,104,78.1z M39.7,56.9c-3.7,0-4.8,0.7-6.4,3.8c-1.2,2.5-0.9,3.2,1.8,3.3c2.4,0.1,4.8,0.1,7.2,0
			c0.9,0,2.2-0.3,2.4-0.9c0.4-0.9,0.5-2.5,0-3.2C43.5,58.1,42.1,56.1,39.7,56.9z M37.3,70.5c2.4,1.2,3.4-1.1,4.7-2.4
			c0.3-0.3,0.6-1.1,0.5-1.5c-0.2-0.4-0.9-0.7-1.4-0.7c-2.6-0.1-5.1-0.2-7.7-0.1c-0.5,0-1.2,0.3-1.4,0.7c-0.2,0.4-0.1,1.2,0.2,1.5
			C33.5,69.5,34.7,71.4,37.3,70.5z"/>
		<path d="M119.6,114.3c-2.4,6.3-7.3,9.9-12.9,12.5c-10.4,4.9-21.5,6.5-32.7,7.1c-14.1,0.8-28-0.3-41.5-4.4c-5-1.5-9.7-3.5-13.8-6.8
			c-3.2-2.6-5.2-5.8-5.2-10c0-1.8,0.6-2.6,2.7-2.5c2.7,0.1,4.8,0.8,6.8,2.9c1.1,1.2,3.3,1.4,4.8,2.4c2.7,1.7,5.2,3.8,8,5.3
			c1.7,0.9,3.7,1.3,5.5,1.8c2.6,0.8,5.2,1.5,7.9,2.2c1.5,0.4,3.1,0.8,4.6,0.8c5.1,0.1,10.2,0.2,15.2,0c4.6-0.2,9.3-0.7,13.8-1.4
			c2-0.3,3.9-1.6,5.9-2.4c0.7-0.3,1.6-0.5,2.4-0.6c4.2-0.7,8.4-1.1,12.5-2.2c2.2-0.5,4.2-2,6.2-3.1
			C112.7,114,115.9,113.5,119.6,114.3z"/>
		<path d="M146.6,17.3c1,2.7-0.6,2.6-2.2,2.6c-26.2,0-52.5,0-78.7,0c-19.3,0-38.7,0-58,0c-1,0-2,0-2.9,0c-0.7-1.8-0.4-2.7,1.4-2.6
			c0.4,0,0.8,0,1.2,0c45.6,0,91.2,0,136.7,0C145,17.3,145.7,17.3,146.6,17.3z"/>
		<path d="M4.8,33.6c1,0,2,0,3,0c45.3,0,90.6,0,135.9,0c1.1,0,3,0.7,3,1c-0.2,2.2-2,1.2-3.1,1.2c-45.4,0.1-90.8,0.1-136.2,0
			C6.3,35.8,4.1,36.7,4.8,33.6z"/>
		<path d="M146.4,50.3c-47.2,0-94.4,0-141.6,0c0-0.2,0-0.3,0-0.5c47.2,0,94.4,0,141.5,0C146.3,50,146.3,50.1,146.4,50.3z"/>
		<path fill="#FFFFFF" d="M104,78.1c-3.9,0-6.2-1.9-5.7-5.2c0.2-1.7,1.3-3.3,2-4.9c1-2.4,3.1-1.3,4.8-1.5c0.7-0.1,1.3,0,2,0
			c4.6,0,6.6,3,4.2,7C109.8,75.9,107.7,78.6,104,78.1z"/>
		<path fill="#FFFFFF" d="M39.7,56.9c2.4-0.8,3.8,1.2,5.1,3c0.5,0.8,0.4,2.3,0,3.2c-0.2,0.6-1.6,0.9-2.4,0.9c-2.4,0.1-4.8,0-7.2,0
			c-2.7-0.1-3.1-0.8-1.8-3.3C34.8,57.6,35.9,56.9,39.7,56.9z"/>
		<path fill="#FFFFFF" d="M37.3,70.5c-2.6,0.9-3.8-1-5-2.5c-0.3-0.4-0.4-1.2-0.2-1.5c0.2-0.4,0.9-0.7,1.4-0.7c2.6,0,5.1,0,7.7,0.1
			c0.5,0,1.2,0.3,1.4,0.7c0.2,0.3-0.1,1.1-0.5,1.5C40.7,69.4,39.7,71.7,37.3,70.5z"/>
	</g>
</g>
<line fill="none" stroke="#000000" stroke-width="2.5129" stroke-miterlimit="10" x1="4.4" y1="49.8" x2="146.8" y2="49.8"/>
</svg>
